<svg xmlns="http://www.w3.org/2000/svg" width="233" height="34" fill="none"><path fill-rule="evenodd" clip-rule="evenodd" d="M20.747 20.633h.003V10.602h-4.62v2.46h-.003v10.03h4.62v-2.46zm1.543-.792a9.982 9.982 0 0 0 3.85.767c5.527 0 10.009-4.48 10.009-10.006S31.667.596 26.139.596c-5.527 0-10.008 4.48-10.008 10.006h4.62a5.389 5.389 0 0 1 5.389-5.388 5.389 5.389 0 1 1 0 10.776c-1.743 0-2.18-.11-3.85-.905v4.756zm-7.702-5.988a9.982 9.982 0 0 0-3.85-.767c-5.528 0-10.01 4.48-10.01 10.006 0 5.527 4.482 10.006 10.01 10.006s10.009-4.48 10.009-10.006h-4.62a5.389 5.389 0 0 1-5.39 5.388 5.389 5.389 0 1 1 0-10.775c1.743 0 2.18.11 3.85.904v-4.756z" fill="url(#a)"></path><path fill-rule="evenodd" clip-rule="evenodd" d="M72.322 16.823V.273h-6.134v19.969h6.134v-3.419zm-8.18-8.85a13.255 13.255 0 0 0-5.112-1.02c-7.341 0-13.292 5.95-13.292 13.289 0 7.338 5.95 13.288 13.292 13.288 7.341 0 13.292-5.95 13.292-13.288h-6.135a7.156 7.156 0 0 1-7.157 7.155 7.156 7.156 0 1 1 0-14.31c2.314 0 2.895.146 5.112 1.201V7.972zm154.797-1.37c7.488 0 13.559 6.069 13.559 13.555h-6.258a7.3 7.3 0 0 0-7.301-7.299 7.3 7.3 0 0 0-7.301 7.299h-.121v12.478h-6.136V20.158h-.001l.001-.162v-.444h.012c.317-7.205 6.26-12.949 13.546-12.949zm13.573 13.555v12.478h-6.258V20.158h6.258zm-98.242-9.114.003.003.316.317-4.002 4.363c-.066-.067-.115-.123-.163-.179-.212-.246-.4-.465-2.036-1.41a7.155 7.155 0 1 0-7.157 12.393 7.158 7.158 0 0 0 9.777-2.618l.041.023 7.388-10.548V.273h6.137V8.17a13.5 13.5 0 0 1 6.331-1.565c7.488 0 13.559 6.068 13.559 13.555h-6.258a7.3 7.3 0 0 0-7.301-7.3 7.297 7.297 0 0 0-6.331 3.662v16.115h-6.137v-8.553l-2.846 4.064-.019-.012c-3.943 5.452-11.453 7.145-17.408 3.708-6.358-3.67-8.536-11.796-4.866-18.152 3.671-6.356 11.8-8.533 18.158-4.864 1.429.825 1.797 1.196 2.814 2.217zM95.639 9.869a13.198 13.198 0 0 1 2.37 2.395v.002c3.68 4.801 3.639 11.538-.124 16.297a13.196 13.196 0 0 1-3.1 2.854 13.19 13.19 0 0 1-2.275 1.207l-.003-.002a13.274 13.274 0 0 1-11.708-.78 13.262 13.262 0 0 1-6.477-9.397 13.23 13.23 0 0 1 .554-6.439 13.19 13.19 0 0 1 1.913-3.616 13.201 13.201 0 0 1 3.613-3.327 13.24 13.24 0 0 1 5.243-1.894 13.242 13.242 0 0 1 5.778.484 13.204 13.204 0 0 1 4.216 2.216zM82.384 25.396a7.162 7.162 0 0 0 10.013.109l.11-.11a7.216 7.216 0 0 0 1.137-1.482h.002a7.156 7.156 0 0 0-7.203-10.663c-.96.136-1.889.467-2.723.974a7.174 7.174 0 0 0-3.001 3.663 7.17 7.17 0 0 0 .567 6.093c.299.505.665.98 1.1 1.414l-.002.002zm26.628-21.948a3.175 3.175 0 1 1-6.35-.001 3.175 3.175 0 0 1 6.35 0zm-.001 29.188h-6.136V8.56h6.136v24.076zm93.141-29.188a3.175 3.175 0 1 1-6.35 0 3.175 3.175 0 0 1 6.35 0zm-.001 29.188h-6.136V8.56h6.136v24.076zm-15.604-1.173c-.705.46-1.444.848-2.206 1.161l-.002-.002a13.274 13.274 0 0 1-11.708-.78 13.262 13.262 0 0 1-6.48-9.407 13.239 13.239 0 0 1 .554-6.422 13.173 13.173 0 0 1 1.918-3.626 13.195 13.195 0 0 1 3.609-3.323 13.233 13.233 0 0 1 5.243-1.895 13.244 13.244 0 0 1 5.785.485c1.146.359 2.253.876 3.287 1.553V8.56h6.136v24.215h-6.136v-1.312zm-10.849-4.932a7.164 7.164 0 0 1-1.483-1.135l.001-.002a7.22 7.22 0 0 1-1.095-1.406 7.17 7.17 0 0 1-.571-6.102 7.308 7.308 0 0 1 .94-1.763 7.206 7.206 0 0 1 2.058-1.897 7.19 7.19 0 0 1 2.726-.976 7.194 7.194 0 0 1 3.116.247 7.198 7.198 0 0 1 2.948 1.778 7.156 7.156 0 0 1 1.139 8.638h-.002a7.148 7.148 0 0 1-1.137 1.481l-.111.11a7.162 7.162 0 0 1-8.529 1.027zm-11.224 6.105V20.16h-6.258v12.477h6.258z" fill="#fff"></path><defs><linearGradient id="a" x1="36.149" y1="19.335" x2="-3.767" y2="28.894" gradientUnits="userSpaceOnUse"><stop stop-color="#18D685"></stop><stop offset=".575" stop-color="#0390CB"></stop><stop offset="1" stop-color="#0B3E74"></stop></linearGradient></defs></svg>